<?xml version="1.0" standalone="no"?>
<!DOCTYPE svg PUBLIC "-//W3C//DTD SVG 20010904//EN"
 "http://www.w3.org/TR/2001/REC-SVG-20010904/DTD/svg10.dtd">
<svg version="1.0" xmlns="http://www.w3.org/2000/svg"
 width="500.000000pt" height="500.000000pt" viewBox="0 0 500.000000 500.000000"
 preserveAspectRatio="xMidYMid meet">
<metadata>
Created by potrace 1.14, written by Peter Selinger 2001-2017
</metadata>
<g transform="translate(0.000000,500.000000) scale(0.100000,-0.100000)"
fill="#000000" stroke="none">
<path d="M2427 4074 c-1 -1 -40 -4 -87 -8 -425 -33 -848 -373 -998 -803 -60
-171 -76 -262 -76 -448 0 -185 20 -290 86 -462 88 -230 298 -482 503 -605 217
-130 380 -177 620 -176 215 0 388 44 570 145 121 67 154 92 269 203 106 102
225 274 280 406 40 96 71 211 83 314 9 76 10 307 1 365 -31 205 -88 349 -209
535 -174 266 -465 464 -759 515 -70 12 -274 26 -283 19z m203 -84 c49 -7 47
-8 -56 -40 -39 -12 -91 -35 -115 -51 -40 -26 -42 -29 -18 -29 42 0 63 -22 68
-72 1 -4 10 -10 21 -13 14 -5 32 2 54 19 60 45 128 47 142 3 14 -41 13 -51
-18 -124 -32 -79 -40 -130 -26 -178 15 -53 33 -68 85 -70 90 -3 106 -17 137
-113 20 -59 53 -85 84 -65 48 29 82 140 82 264 0 71 -3 91 -20 112 -27 34 -27
77 0 77 29 0 74 -25 120 -66 22 -20 44 -33 50 -29 12 7 -9 62 -46 118 -37 57
-4 35 85 -56 90 -92 148 -169 189 -250 l31 -62 -1 -398 c-1 -408 2 -436 36
-407 14 10 16 62 18 359 l3 346 20 -50 c18 -45 20 -79 22 -370 2 -243 0 -332
-11 -370 -17 -67 -41 -111 -50 -96 -6 9 -11 9 -22 0 -20 -16 -17 -29 6 -29 19
0 18 -1 -3 -47 -41 -87 -72 -133 -87 -130 -10 1 -14 -5 -13 -18 3 -30 -61
-107 -75 -93 -18 18 -40 -6 -24 -25 17 -20 -45 -79 -74 -71 -23 6 -41 -20 -23
-32 11 -6 -56 -68 -76 -70 -5 -1 -15 -2 -21 -3 -7 0 -14 -9 -16 -19 -6 -23
-123 -85 -160 -84 -17 0 -28 -5 -28 -13 0 -25 -147 -70 -300 -91 -126 -18
-332 1 -435 39 -38 15 -25 16 203 16 134 1 251 5 260 10 16 8 17 54 16 603 -1
326 -2 597 -3 601 0 5 -9 7 -18 5 -17 -3 -18 -41 -23 -583 l-5 -580 -300 -1
c-284 0 -302 1 -340 20 l-40 21 315 5 c173 3 316 7 318 8 5 5 2 1042 -4 1056
-5 13 -29 22 -36 14 -2 -2 -5 -232 -8 -513 l-5 -510 -330 -1 c-311 -1 -332 0
-362 18 -18 11 -33 23 -33 28 0 5 149 8 330 7 206 0 334 3 340 9 7 7 9 173 8
460 -3 441 -3 449 -23 449 -20 0 -20 -8 -23 -429 -2 -432 -5 -463 -37 -436 -7
6 -10 180 -10 539 1 292 -2 536 -6 542 -12 20 -39 1 -40 -28 0 -15 -1 -257 -2
-538 l-2 -510 -290 -3 c-159 -1 -299 0 -310 2 -11 3 -26 14 -32 25 -12 20 -9
20 279 21 160 0 294 2 297 5 9 5 8 801 -1 810 -13 13 -38 -4 -39 -27 0 -13 -1
-135 -2 -273 l-2 -250 -370 -3 -371 -2 -10 27 -10 28 353 -1 c315 -1 355 1
362 15 4 9 7 116 6 238 -1 228 -7 265 -37 234 -10 -9 -13 -67 -14 -216 0 -113
-3 -207 -7 -211 -4 -4 -160 -7 -346 -8 l-340 -1 -10 22 c-6 12 -7 24 -3 26 4
2 148 3 320 3 172 -1 318 1 323 5 9 5 14 1167 5 1176 -2 2 -97 4 -211 3 l-209
0 31 30 31 31 169 1 c92 1 174 3 181 6 21 7 14 39 -10 45 -13 2 -81 4 -151 3
l-128 -1 36 31 36 30 142 2 142 1 0 -332 c-1 -183 1 -338 3 -344 4 -14 41 -18
43 -5 1 4 2 168 3 365 2 241 -1 360 -8 365 -6 3 -58 6 -116 5 l-105 -2 40 21
c22 12 84 36 138 54 93 31 99 32 94 14 -3 -13 1 -24 12 -30 22 -11 41 5 41 36
0 29 9 34 73 41 29 3 54 7 57 10 6 5 184 0 240 -7z m-619 -812 c0 -216 1 -458
1 -538 l1 -145 -313 -3 c-327 -2 -329 -2 -330 40 0 15 16 17 151 16 83 0 154
3 159 8 7 7 15 273 11 366 -1 15 -16 18 -118 20 l-118 3 -1 42 c0 24 -3 45 -6
49 -3 3 -24 6 -47 7 -48 2 -49 3 -20 102 28 94 49 107 49 29 0 -69 3 -71 178
-68 117 2 132 0 133 -14 1 -10 2 -31 3 -49 2 -38 10 -48 31 -39 13 5 15 19 13
78 l-3 73 -150 5 -150 5 0 48 c-1 49 -15 70 -42 60 -17 -7 -17 18 1 42 13 17
28 19 160 20 l146 1 0 -47 c0 -54 12 -67 58 -64 17 1 33 -3 33 -9 1 -6 3 -108
4 -226 1 -118 3 -221 4 -227 1 -14 40 -18 42 -5 5 29 3 495 -2 504 -4 6 -24
11 -45 12 -37 1 -39 3 -42 36 -6 86 7 80 -168 80 l-155 0 21 30 22 30 161 -2
161 -3 1 -40 c1 -46 10 -65 31 -65 17 0 16 -3 18 83 1 38 -2 71 -8 74 -6 4
-84 6 -174 6 -152 -2 -162 -1 -151 15 42 55 27 52 246 52 l203 0 1 -392z
m-614 -191 c4 -4 7 -27 8 -50 l0 -42 118 -3 117 -3 0 -145 0 -145 -142 3 -143
3 -3 27 c-3 27 -2 27 60 30 55 3 63 5 63 23 0 18 -8 20 -69 23 l-68 3 4 132
c2 73 7 137 11 144 7 12 31 12 44 0z m809 -779 c1 -10 -1 -20 -5 -23 -8 -4
-256 -7 -532 -6 -145 1 -146 1 -157 25 l-11 25 351 -2 c326 -2 351 -3 354 -19z
m-2 -101 c-1 -9 -2 -21 -3 -27 -1 -6 -108 -10 -300 -10 -300 0 -300 0 -316 23
-15 21 -14 22 6 27 12 3 155 5 318 5 271 -1 296 -3 295 -18z"/>
<path d="M2316 3941 c-3 -5 1 -15 10 -22 13 -10 17 -10 24 1 5 8 6 18 4 22 -7
11 -31 10 -38 -1z"/>
<path d="M2221 3837 c-12 -15 -5 -27 16 -27 7 0 13 9 13 20 0 23 -13 26 -29 7z"/>
<path d="M2346 3787 c-74 -97 -106 -273 -71 -392 50 -175 178 -320 325 -372
55 -20 67 -17 42 10 -30 32 -39 65 -35 126 7 89 3 95 -97 146 -118 62 -169 99
-185 139 -19 45 -5 94 40 135 19 17 35 36 35 41 0 5 -11 20 -24 33 -26 26 -26
44 0 104 27 61 8 80 -30 30z"/>
<path d="M2431 3747 c-14 -17 3 -41 23 -34 9 4 16 13 16 21 0 19 -26 28 -39
13z"/>
<path d="M2522 3677 c-14 -16 -6 -27 20 -27 13 0 18 6 16 17 -4 22 -22 27 -36
10z"/>
<path d="M3294 3529 c-8 -14 18 -31 30 -19 9 9 0 30 -14 30 -5 0 -12 -5 -16
-11z"/>
<path d="M3127 3456 c-13 -36 -13 -48 -3 -62 12 -16 15 -16 31 9 23 36 25 90
4 95 -12 2 -21 -10 -32 -42z"/>
<path d="M3287 3423 c-3 -10 -5 -231 -6 -491 0 -413 2 -474 15 -479 9 -3 20
-1 25 4 10 10 19 852 11 943 -3 31 -8 40 -22 40 -10 0 -21 -8 -23 -17z"/>
<path d="M3388 3378 c-3 -7 -5 -169 -6 -360 0 -281 3 -349 14 -358 7 -7 18 -9
24 -5 7 4 10 128 10 371 0 350 -1 364 -19 364 -10 0 -21 -6 -23 -12z"/>
<path d="M2214 3215 c-4 -8 -6 -48 -6 -88 0 -131 0 -129 25 -125 21 3 22 7 23
108 1 99 -4 119 -29 120 -4 0 -10 -7 -13 -15z"/>
<path d="M3100 3162 c-8 -3 -28 -15 -45 -27 -53 -40 -116 -67 -209 -90 -61
-14 -91 -26 -91 -36 0 -35 166 -11 257 38 49 27 118 86 118 102 0 14 -13 19
-30 13z"/>
<path d="M3195 3160 c-4 -6 -7 -167 -7 -357 0 -341 4 -385 32 -357 15 15 9
716 -7 721 -6 2 -14 -1 -18 -7z"/>
<path d="M2125 3029 c-10 -15 1 -23 20 -15 9 3 13 10 10 16 -8 13 -22 13 -30
-1z"/>
<path d="M3001 2966 c-8 -9 -11 -114 -9 -367 3 -346 3 -354 23 -354 20 0 20 7
21 355 0 195 -1 361 -4 368 -5 16 -17 15 -31 -2z"/>
<path d="M3101 2950 c-11 -6 -14 -65 -16 -297 0 -158 1 -294 3 -300 4 -14 41
-18 43 -5 1 4 3 139 4 300 2 296 -1 323 -34 302z"/>
<path d="M2406 2935 c-3 -9 1 -18 10 -22 19 -7 39 11 30 26 -10 16 -33 13 -40
-4z"/>
<path d="M2120 2916 c0 -21 21 -31 30 -15 5 7 6 17 4 21 -9 14 -34 9 -34 -6z"/>
<path d="M2210 2921 c0 -5 6 -14 14 -20 10 -8 16 -8 25 2 6 8 8 17 4 20 -9 10
-43 8 -43 -2z"/>
<path d="M2897 2894 c-4 -4 -7 -150 -7 -324 0 -256 3 -320 14 -329 33 -27 36
9 34 335 -3 278 -5 319 -18 322 -9 1 -19 0 -23 -4z"/>
<path d="M2706 2865 c-6 -17 16 -31 33 -21 13 9 2 36 -14 36 -7 0 -16 -7 -19
-15z"/>
<path d="M2799 2803 c-6 -41 -3 -742 3 -755 5 -10 15 -15 23 -12 13 5 15 57
13 387 -3 354 -4 382 -20 385 -10 2 -19 0 -19 -5z"/>
<path d="M2703 2768 c-10 -16 -11 -815 -1 -831 6 -9 12 -9 25 -1 17 10 18 39
19 410 0 219 -3 407 -8 417 -10 20 -24 22 -35 5z"/>
<path d="M3390 2576 c0 -17 27 -29 35 -16 4 6 3 15 0 20 -9 15 -35 12 -35 -4z"/>
<path d="M3397 2484 c-14 -14 -7 -35 11 -32 9 2 17 10 17 17 0 16 -18 25 -28
15z"/>
<path d="M3484 2479 c-10 -17 13 -36 27 -22 12 12 4 33 -11 33 -5 0 -12 -5
-16 -11z"/>
<path d="M3396 2383 c-13 -14 -5 -33 14 -33 11 0 20 6 20 14 0 15 -24 28 -34
19z"/>
<path d="M3196 2371 c-7 -11 18 -33 27 -24 4 3 7 12 7 20 0 15 -26 18 -34 4z"/>
<path d="M3290 2367 c0 -21 12 -28 27 -16 19 16 16 29 -7 29 -11 0 -20 -6 -20
-13z"/>
<path d="M3095 2270 c-8 -14 3 -30 21 -30 8 0 14 9 14 20 0 21 -24 28 -35 10z"/>
<path d="M3197 2265 c-8 -18 11 -31 25 -17 11 11 3 32 -12 32 -4 0 -10 -7 -13
-15z"/>
<path d="M3297 2274 c-14 -14 -7 -35 11 -32 9 2 17 10 17 17 0 16 -18 25 -28
15z"/>
<path d="M3394 2269 c-10 -17 13 -36 27 -22 12 12 4 33 -11 33 -5 0 -12 -5
-16 -11z"/>
<path d="M2903 2165 c-7 -20 2 -29 21 -22 9 4 13 13 10 22 -8 19 -23 19 -31 0z"/>
<path d="M3007 2173 c-4 -3 -7 -12 -7 -20 0 -17 26 -17 33 1 8 21 -11 35 -26
19z"/>
<path d="M3100 2170 c-15 -9 -5 -30 15 -30 18 0 27 27 11 33 -7 3 -19 2 -26
-3z"/>
<path d="M3207 2173 c-13 -12 -7 -33 8 -33 8 0 15 9 15 20 0 20 -11 26 -23 13z"/>
<path d="M3294 2169 c-8 -14 11 -33 25 -25 6 4 11 11 11 16 0 13 -29 20 -36 9z"/>
<path d="M2902 2053 c2 -10 10 -18 18 -18 22 0 18 29 -3 33 -14 3 -18 -1 -15
-15z"/>
<path d="M3000 2056 c0 -18 16 -29 30 -21 13 8 1 35 -16 35 -8 0 -14 -6 -14
-14z"/>
<path d="M3096 2062 c-8 -13 11 -35 23 -28 16 10 14 36 -3 36 -8 0 -17 -4 -20
-8z"/>
<path d="M3197 2055 c-7 -16 8 -29 23 -20 15 9 12 35 -4 35 -8 0 -16 -7 -19
-15z"/>
<path d="M2800 1963 c0 -17 19 -35 29 -29 18 12 12 36 -9 36 -11 0 -20 -3 -20
-7z"/>
<path d="M2900 1956 c0 -8 4 -17 8 -20 13 -8 35 11 28 23 -10 16 -36 14 -36
-3z"/>
<path d="M3000 1956 c0 -8 4 -17 9 -20 11 -7 33 18 24 27 -12 12 -33 7 -33 -7z"/>
<path d="M3096 1961 c-7 -11 18 -33 27 -24 4 3 7 12 7 20 0 15 -26 18 -34 4z"/>
<path d="M2705 1861 c-8 -15 3 -31 21 -31 9 0 14 7 12 17 -4 20 -24 28 -33 14z"/>
<path d="M2807 1855 c-8 -18 11 -31 25 -17 11 11 3 32 -12 32 -4 0 -10 -7 -13
-15z"/>
<path d="M2903 1855 c-7 -20 2 -29 21 -22 9 4 13 13 10 22 -8 19 -23 19 -31 0z"/>
<path d="M3006 1863 c-12 -12 -6 -33 9 -33 8 0 15 6 15 14 0 17 -14 28 -24 19z"/>
<path d="M2704 1749 c-8 -14 11 -33 25 -25 6 4 11 14 11 22 0 16 -26 19 -36 3z"/>
<path d="M2804 1744 c3 -9 6 -18 6 -21 0 -3 7 0 15 7 17 14 11 30 -12 30 -10
0 -13 -6 -9 -16z"/>
<path d="M1944 3489 c-8 -14 18 -31 30 -19 9 9 0 30 -14 30 -5 0 -12 -5 -16
-11z"/>
<path d="M1947 3374 c-9 -10 2 -24 19 -24 8 0 14 7 14 15 0 15 -21 21 -33 9z"/>
<path d="M1553 3263 c-21 -7 -15 -33 7 -33 11 0 20 6 20 14 0 18 -11 25 -27
19z"/>
<path d="M1656 3263 c-13 -14 -5 -33 14 -33 11 0 20 6 20 14 0 15 -24 28 -34
19z"/>
<path d="M1950 3250 c0 -13 5 -20 13 -17 6 2 12 10 12 17 0 7 -6 15 -12 18 -8
2 -13 -5 -13 -18z"/>
<path d="M1947 3135 c6 -17 25 -15 31 3 2 7 -5 12 -17 12 -14 0 -19 -5 -14
-15z"/>
<path d="M1527 3033 c-13 -12 -7 -23 13 -23 11 0 20 7 20 15 0 15 -21 21 -33
8z"/>
<path d="M1654 3029 c-3 -6 -2 -15 2 -19 12 -12 38 5 30 19 -9 14 -23 14 -32
0z"/>
<path d="M1950 3025 c0 -9 5 -15 11 -13 6 2 11 8 11 13 0 5 -5 11 -11 13 -6 2
-11 -4 -11 -13z"/>
<path d="M1760 2920 c-12 -7 -12 -12 -2 -22 14 -14 35 1 24 19 -5 8 -13 9 -22
3z"/>
<path d="M1945 2911 c-7 -12 12 -24 25 -16 11 7 4 25 -10 25 -5 0 -11 -4 -15
-9z"/>
<path d="M1750 2796 c0 -8 4 -17 9 -20 11 -7 33 18 24 27 -12 12 -33 7 -33 -7z"/>
<path d="M1945 2800 c-3 -6 1 -13 10 -16 19 -8 30 0 20 15 -8 14 -22 14 -30 1z"/>
<path d="M1755 2690 c-7 -12 2 -30 16 -30 5 0 9 9 9 20 0 21 -15 27 -25 10z"/>
<path d="M1857 2693 c-14 -13 -6 -33 13 -33 11 0 20 4 20 9 0 13 -26 32 -33
24z"/>
<path d="M1943 2678 c2 -7 10 -13 17 -13 7 0 15 6 18 13 2 7 -5 12 -18 12 -13
0 -20 -5 -17 -12z"/>
<path d="M1750 2576 c0 -19 27 -28 33 -11 7 15 -1 25 -20 25 -7 0 -13 -6 -13
-14z"/>
<path d="M1850 2576 c0 -8 4 -17 8 -20 13 -8 35 11 28 23 -10 16 -36 14 -36
-3z"/>
<path d="M1944 2579 c-8 -14 18 -31 30 -19 9 9 0 30 -14 30 -5 0 -12 -5 -16
-11z"/>
<path d="M1410 2818 c-43 -16 -15 -33 58 -36 l71 -3 3 -57 c3 -49 6 -57 23
-57 18 0 20 8 23 69 2 38 -1 73 -6 78 -12 12 -143 17 -172 6z"/>
<path d="M959 1243 c-19 -5 -49 -54 -49 -80 0 -26 35 -62 68 -68 60 -13 78
-38 39 -56 -19 -9 -31 -7 -57 6 -17 9 -33 15 -34 13 -1 -2 -8 -11 -15 -20 -11
-15 -9 -20 21 -38 76 -46 169 -3 159 75 -3 26 -46 65 -72 65 -31 0 -59 19 -53
34 9 23 33 27 69 11 32 -13 36 -12 45 5 14 26 13 28 -20 45 -28 14 -67 18
-101 8z"/>
<path d="M1230 1242 c-84 -37 -110 -136 -54 -209 28 -38 80 -57 131 -48 42 6
68 26 90 69 45 87 -23 197 -119 195 -18 0 -40 -3 -48 -7z m104 -71 c28 -31 28
-79 1 -107 -39 -39 -96 -31 -120 17 -20 37 -19 51 6 83 25 32 86 37 113 7z"/>
<path d="M1470 1161 c0 -73 4 -96 21 -125 38 -66 129 -72 173 -12 18 23 21 44
23 127 l2 99 -28 0 -27 0 -2 -84 c0 -47 -6 -94 -12 -105 -20 -38 -89 -17 -91
27 0 9 -1 50 -1 90 l-1 72 -28 0 -29 0 0 -89z"/>
<path d="M1764 1118 c1 -130 2 -133 24 -136 20 -3 22 1 23 45 1 26 0 62 -1 78
l-2 30 58 -55 c32 -30 66 -65 77 -78 10 -12 22 -20 26 -18 4 3 8 64 8 135 l2
131 -25 0 c-26 0 -27 -3 -25 -98 l1 -54 -49 41 c-27 23 -63 57 -80 76 -17 19
-32 35 -34 35 -2 0 -4 -60 -3 -132z"/>
<path d="M2050 1114 l0 -135 69 4 c78 4 111 21 141 70 24 39 25 75 4 121 -24
49 -78 76 -153 76 l-61 0 0 -136z m148 53 c48 -44 12 -127 -55 -127 l-33 0 0
74 c0 63 3 75 18 78 24 6 43 -1 70 -25z"/>
<path d="M2484 1236 c-91 -40 -103 -166 -21 -227 25 -19 45 -24 87 -24 86 0
90 4 90 80 l0 65 -50 0 c-47 0 -50 -2 -50 -25 0 -20 5 -25 26 -25 21 0 25 -4
22 -22 -7 -48 -91 -27 -115 29 -11 28 -11 39 -1 61 18 37 56 54 97 42 26 -7
37 -6 49 7 15 14 14 17 -7 34 -27 22 -82 24 -127 5z"/>
<path d="M2710 1115 l0 -135 29 0 c20 0 28 5 28 18 0 40 4 48 26 50 16 1 28
-8 40 -31 14 -26 25 -33 48 -33 35 0 36 2 4 48 -20 30 -22 39 -11 45 19 12 36
48 36 78 0 17 -12 39 -34 61 -32 32 -38 34 -100 34 l-66 0 0 -135z m130 70 c6
-3 10 -19 10 -35 0 -31 -22 -50 -59 -50 -24 0 -27 10 -23 60 4 36 6 38 33 35
16 -2 34 -7 39 -10z"/>
<path d="M3022 1230 c-56 -35 -76 -110 -46 -172 24 -50 61 -73 117 -72 89 1
135 59 128 162 0 12 -16 39 -34 58 -43 47 -113 57 -165 24z m132 -72 c23 -32
20 -65 -9 -93 -49 -49 -125 -20 -125 48 0 82 88 111 134 45z"/>
<path d="M3282 1147 c3 -95 5 -108 27 -131 49 -52 145 -40 170 23 11 27 21
176 13 199 -2 6 -16 12 -31 12 l-26 0 2 -81 c2 -103 -7 -129 -46 -129 -45 0
-55 22 -56 119 l-2 86 -27 3 -28 4 4 -105z"/>
<path d="M3569 1227 c0 -15 0 -54 0 -87 0 -167 -1 -160 26 -160 24 0 25 2 25
76 l0 76 77 -76 c42 -42 80 -76 83 -76 4 0 6 61 6 135 l-1 135 -27 0 -28 0 0
-77 0 -78 -80 80 c-75 74 -80 78 -81 52z"/>
<path d="M3859 1248 c0 -2 -1 -63 -2 -135 l-2 -133 73 3 c78 4 116 22 139 68
31 60 3 153 -54 182 -24 12 -152 25 -154 15z m150 -79 c48 -45 7 -129 -62
-129 l-33 0 -1 74 c-2 70 0 75 20 78 32 5 52 -1 76 -23z"/>
</g>
</svg>
